<?xml version="1.0" encoding="UTF-8"?>
<svg xmlns="http://www.w3.org/2000/svg" xmlns:xlink="http://www.w3.org/1999/xlink" width="10pt" height="10pt" viewBox="0 0 10 10" version="1.1">
<g id="surface1">
<path style=" stroke:none;fill-rule:nonzero;fill:rgb(98.823529%,81.568627%,38.823529%);fill-opacity:1;" d="M 10 5 C 10 7.761719 7.761719 10 5 10 C 2.238281 10 0 7.761719 0 5 C 0 2.238281 2.238281 0 5 0 C 7.761719 0 10 2.238281 10 5 Z M 10 5 "/>
<path style=" stroke:none;fill-rule:nonzero;fill:rgb(96.862745%,72.156863%,30.588235%);fill-opacity:1;" d="M 8.207031 1.167969 C 8.9375 2.035156 9.375 3.152344 9.375 4.375 C 9.375 7.136719 7.136719 9.375 4.375 9.375 C 3.152344 9.375 2.035156 8.9375 1.167969 8.207031 C 2.085938 9.304688 3.460938 10 5 10 C 7.761719 10 10 7.761719 10 5 C 10 3.460938 9.304688 2.085938 8.207031 1.167969 Z M 8.207031 1.167969 "/>
<path style=" stroke:none;fill-rule:nonzero;fill:rgb(96.862745%,72.156863%,30.588235%);fill-opacity:1;" d="M 8.75 4.53125 C 8.75 4.789062 8.539062 5 8.28125 5 C 8.023438 5 7.8125 4.789062 7.8125 4.53125 C 7.8125 4.273438 8.023438 4.0625 8.28125 4.0625 C 8.539062 4.0625 8.75 4.273438 8.75 4.53125 Z M 8.75 4.53125 "/>
<path style=" stroke:none;fill-rule:nonzero;fill:rgb(96.862745%,72.156863%,30.588235%);fill-opacity:1;" d="M 2.1875 4.53125 C 2.1875 4.789062 1.976562 5 1.71875 5 C 1.460938 5 1.25 4.789062 1.25 4.53125 C 1.25 4.273438 1.460938 4.0625 1.71875 4.0625 C 1.976562 4.0625 2.1875 4.273438 2.1875 4.53125 Z M 2.1875 4.53125 "/>
<path style=" stroke:none;fill-rule:nonzero;fill:rgb(100%,100%,100%);fill-opacity:1;" d="M 7.839844 5.625 L 2.160156 5.625 C 2.003906 5.625 1.875 5.742188 1.875 5.886719 C 1.875 7.464844 3.277344 8.75 5 8.75 C 6.722656 8.75 8.125 7.464844 8.125 5.886719 C 8.125 5.742188 8 5.625 7.839844 5.625 Z M 7.839844 5.625 "/>
<path style=" stroke:none;fill-rule:nonzero;fill:rgb(88.627451%,89.803922%,90.588235%);fill-opacity:1;" d="M 8.105469 6.144531 C 8.113281 6.058594 8.125 5.972656 8.125 5.886719 C 8.125 5.742188 8 5.625 7.839844 5.625 L 2.160156 5.625 C 2.003906 5.625 1.875 5.742188 1.875 5.886719 C 1.875 5.972656 1.886719 6.058594 1.894531 6.144531 Z M 8.105469 6.144531 "/>
<path style=" stroke:none;fill-rule:nonzero;fill:rgb(88.627451%,89.803922%,90.588235%);fill-opacity:1;" d="M 2.5 7.597656 C 2.59375 7.714844 2.699219 7.824219 2.8125 7.929688 L 2.8125 5.625 L 2.5 5.625 Z M 2.5 7.597656 "/>
<path style=" stroke:none;fill-rule:nonzero;fill:rgb(88.627451%,89.803922%,90.588235%);fill-opacity:1;" d="M 4.0625 8.617188 C 4.164062 8.648438 4.269531 8.671875 4.375 8.691406 L 4.375 5.625 L 4.0625 5.625 Z M 4.0625 8.617188 "/>
<path style=" stroke:none;fill-rule:nonzero;fill:rgb(88.627451%,89.803922%,90.588235%);fill-opacity:1;" d="M 5.625 8.691406 C 5.730469 8.671875 5.835938 8.648438 5.9375 8.617188 L 5.9375 5.625 L 5.625 5.625 Z M 5.625 8.691406 "/>
<path style=" stroke:none;fill-rule:nonzero;fill:rgb(88.627451%,89.803922%,90.588235%);fill-opacity:1;" d="M 7.5 7.597656 L 7.5 5.625 L 7.1875 5.625 L 7.1875 7.929688 C 7.300781 7.824219 7.402344 7.714844 7.5 7.597656 Z M 7.5 7.597656 "/>
<path style=" stroke:none;fill-rule:nonzero;fill:rgb(79.215686%,81.960784%,84.705882%);fill-opacity:1;" d="M 2.5 5.625 L 2.8125 5.625 L 2.8125 6.144531 L 2.5 6.144531 Z M 2.5 5.625 "/>
<path style=" stroke:none;fill-rule:nonzero;fill:rgb(79.215686%,81.960784%,84.705882%);fill-opacity:1;" d="M 4.0625 5.625 L 4.375 5.625 L 4.375 6.144531 L 4.0625 6.144531 Z M 4.0625 5.625 "/>
<path style=" stroke:none;fill-rule:nonzero;fill:rgb(79.215686%,81.960784%,84.705882%);fill-opacity:1;" d="M 5.625 5.625 L 5.9375 5.625 L 5.9375 6.144531 L 5.625 6.144531 Z M 5.625 5.625 "/>
<path style=" stroke:none;fill-rule:nonzero;fill:rgb(79.215686%,81.960784%,84.705882%);fill-opacity:1;" d="M 7.1875 5.625 L 7.5 5.625 L 7.5 6.144531 L 7.1875 6.144531 Z M 7.1875 5.625 "/>
<path style=" stroke:none;fill-rule:nonzero;fill:rgb(78.823529%,55.686275%,24.705882%);fill-opacity:1;" d="M 3.4375 4.34375 C 3.199219 4.316406 3.023438 4.242188 2.871094 4.136719 C 2.796875 4.058594 2.796875 3.929688 2.851562 3.859375 C 2.894531 3.800781 3.003906 3.757812 3.101562 3.828125 C 3.179688 3.882812 3.304688 3.929688 3.4375 3.957031 L 3.4375 3.367188 C 3.101562 3.292969 2.769531 3.191406 2.820312 2.730469 C 2.851562 2.398438 3.128906 2.238281 3.4375 2.191406 L 3.4375 2.144531 C 3.4375 1.886719 3.765625 1.886719 3.765625 2.144531 L 3.765625 2.214844 C 3.894531 2.238281 4.023438 2.269531 4.128906 2.347656 C 4.335938 2.496094 4.128906 2.78125 3.945312 2.648438 C 3.894531 2.628906 3.84375 2.605469 3.765625 2.582031 L 3.765625 3.109375 C 4.070312 3.191406 4.375 3.320312 4.375 3.699219 C 4.375 4.058594 4.105469 4.265625 3.765625 4.316406 L 3.765625 4.390625 C 3.765625 4.648438 3.4375 4.648438 3.4375 4.390625 Z M 3.4375 2.554688 C 3.28125 2.582031 3.179688 2.648438 3.179688 2.804688 C 3.179688 2.933594 3.28125 2.988281 3.4375 3.039062 Z M 3.765625 3.957031 C 3.894531 3.90625 4 3.828125 4 3.675781 C 3.972656 3.574219 3.894531 3.5 3.765625 3.46875 Z M 3.765625 3.957031 "/>
<path style=" stroke:none;fill-rule:nonzero;fill:rgb(67.058824%,47.45098%,20.392157%);fill-opacity:1;" d="M 3.4375 3.171875 L 3.4375 3.039062 C 3.308594 2.996094 3.222656 2.949219 3.191406 2.863281 C 3.1875 2.886719 3.179688 2.910156 3.179688 2.9375 C 3.179688 3.066406 3.28125 3.121094 3.4375 3.171875 Z M 3.4375 3.171875 "/>
<path style=" stroke:none;fill-rule:nonzero;fill:rgb(67.058824%,47.45098%,20.392157%);fill-opacity:1;" d="M 3.765625 3.242188 C 4.054688 3.316406 4.335938 3.441406 4.367188 3.765625 C 4.371094 3.742188 4.375 3.722656 4.375 3.699219 C 4.375 3.320312 4.070312 3.191406 3.765625 3.109375 Z M 3.765625 3.242188 "/>
<path style=" stroke:none;fill-rule:nonzero;fill:rgb(67.058824%,47.45098%,20.392157%);fill-opacity:1;" d="M 4 3.804688 C 3.996094 3.792969 3.988281 3.78125 3.980469 3.765625 C 3.949219 3.859375 3.863281 3.917969 3.765625 3.957031 L 3.765625 4.089844 C 3.894531 4.035156 4 3.960938 4 3.804688 Z M 4 3.804688 "/>
<path style=" stroke:none;fill-rule:nonzero;fill:rgb(67.058824%,47.45098%,20.392157%);fill-opacity:1;" d="M 2.851562 3.992188 C 2.894531 3.933594 3.003906 3.886719 3.101562 3.960938 C 3.179688 4.011719 3.304688 4.0625 3.4375 4.089844 L 3.4375 3.957031 C 3.304688 3.929688 3.179688 3.882812 3.101562 3.828125 C 3.003906 3.753906 2.894531 3.800781 2.851562 3.859375 C 2.8125 3.90625 2.804688 3.980469 2.824219 4.046875 C 2.828125 4.027344 2.839844 4.007812 2.851562 3.992188 Z M 2.851562 3.992188 "/>
<path style=" stroke:none;fill-rule:nonzero;fill:rgb(67.058824%,47.45098%,20.392157%);fill-opacity:1;" d="M 2.820312 2.859375 C 2.847656 2.53125 3.128906 2.371094 3.4375 2.324219 L 3.4375 2.277344 C 3.4375 2.019531 3.765625 2.019531 3.765625 2.277344 L 3.765625 2.347656 C 3.894531 2.371094 4.023438 2.402344 4.125 2.480469 C 4.164062 2.507812 4.183594 2.539062 4.195312 2.570312 C 4.226562 2.5 4.214844 2.410156 4.125 2.347656 C 4.023438 2.273438 3.894531 2.238281 3.765625 2.214844 L 3.765625 2.144531 C 3.765625 1.886719 3.4375 1.886719 3.4375 2.144531 L 3.4375 2.191406 C 3.128906 2.238281 2.847656 2.398438 2.820312 2.730469 C 2.8125 2.789062 2.8125 2.84375 2.820312 2.894531 C 2.820312 2.882812 2.820312 2.875 2.820312 2.859375 Z M 2.820312 2.859375 "/>
<path style=" stroke:none;fill-rule:nonzero;fill:rgb(78.823529%,55.686275%,24.705882%);fill-opacity:1;" d="M 6.25 4.34375 C 6.011719 4.316406 5.835938 4.242188 5.683594 4.136719 C 5.609375 4.058594 5.609375 3.929688 5.664062 3.859375 C 5.707031 3.800781 5.816406 3.757812 5.914062 3.828125 C 5.992188 3.882812 6.117188 3.929688 6.25 3.957031 L 6.25 3.367188 C 5.914062 3.292969 5.582031 3.191406 5.632812 2.730469 C 5.664062 2.398438 5.941406 2.238281 6.25 2.191406 L 6.25 2.144531 C 6.25 1.886719 6.578125 1.886719 6.578125 2.144531 L 6.578125 2.214844 C 6.707031 2.238281 6.835938 2.269531 6.941406 2.347656 C 7.148438 2.496094 6.941406 2.78125 6.757812 2.648438 C 6.707031 2.628906 6.65625 2.605469 6.578125 2.582031 L 6.578125 3.109375 C 6.882812 3.191406 7.1875 3.320312 7.1875 3.699219 C 7.1875 4.058594 6.917969 4.265625 6.578125 4.316406 L 6.578125 4.390625 C 6.578125 4.648438 6.25 4.648438 6.25 4.390625 Z M 6.25 2.554688 C 6.09375 2.582031 5.992188 2.648438 5.992188 2.804688 C 5.992188 2.933594 6.09375 2.988281 6.25 3.039062 Z M 6.578125 3.957031 C 6.707031 3.90625 6.8125 3.828125 6.8125 3.675781 C 6.785156 3.574219 6.707031 3.5 6.578125 3.46875 Z M 6.578125 3.957031 "/>
<path style=" stroke:none;fill-rule:nonzero;fill:rgb(67.058824%,47.45098%,20.392157%);fill-opacity:1;" d="M 6.246094 3.171875 L 6.246094 3.039062 C 6.121094 2.996094 6.03125 2.949219 6.003906 2.863281 C 5.996094 2.886719 5.988281 2.910156 5.988281 2.9375 C 5.988281 3.066406 6.09375 3.121094 6.246094 3.171875 Z M 6.246094 3.171875 "/>
<path style=" stroke:none;fill-rule:nonzero;fill:rgb(67.058824%,47.45098%,20.392157%);fill-opacity:1;" d="M 6.574219 3.242188 C 6.863281 3.316406 7.144531 3.441406 7.179688 3.765625 C 7.179688 3.742188 7.1875 3.722656 7.1875 3.699219 C 7.1875 3.320312 6.882812 3.191406 6.574219 3.109375 Z M 6.574219 3.242188 "/>
<path style=" stroke:none;fill-rule:nonzero;fill:rgb(67.058824%,47.45098%,20.392157%);fill-opacity:1;" d="M 6.808594 3.804688 C 6.804688 3.792969 6.796875 3.78125 6.792969 3.765625 C 6.757812 3.859375 6.675781 3.917969 6.574219 3.957031 L 6.574219 4.089844 C 6.703125 4.035156 6.808594 3.960938 6.808594 3.804688 Z M 6.808594 3.804688 "/>
<path style=" stroke:none;fill-rule:nonzero;fill:rgb(67.058824%,47.45098%,20.392157%);fill-opacity:1;" d="M 5.660156 3.992188 C 5.703125 3.933594 5.816406 3.886719 5.914062 3.960938 C 5.988281 4.011719 6.117188 4.0625 6.246094 4.089844 L 6.246094 3.957031 C 6.113281 3.929688 5.988281 3.882812 5.914062 3.828125 C 5.816406 3.753906 5.703125 3.800781 5.660156 3.859375 C 5.625 3.90625 5.617188 3.980469 5.632812 4.046875 C 5.640625 4.027344 5.648438 4.007812 5.660156 3.992188 Z M 5.660156 3.992188 "/>
<path style=" stroke:none;fill-rule:nonzero;fill:rgb(67.058824%,47.45098%,20.392157%);fill-opacity:1;" d="M 5.632812 2.859375 C 5.660156 2.53125 5.941406 2.371094 6.246094 2.324219 L 6.246094 2.277344 C 6.246094 2.019531 6.578125 2.019531 6.578125 2.277344 L 6.578125 2.347656 C 6.703125 2.371094 6.832031 2.402344 6.9375 2.480469 C 6.976562 2.507812 6.996094 2.539062 7.007812 2.570312 C 7.039062 2.5 7.027344 2.410156 6.9375 2.347656 C 6.832031 2.273438 6.703125 2.238281 6.578125 2.214844 L 6.578125 2.144531 C 6.578125 1.886719 6.246094 1.886719 6.246094 2.144531 L 6.246094 2.191406 C 5.941406 2.238281 5.660156 2.398438 5.632812 2.730469 C 5.625 2.789062 5.625 2.84375 5.628906 2.894531 C 5.632812 2.882812 5.628906 2.875 5.632812 2.859375 Z M 5.632812 2.859375 "/>
</g>
</svg>
