<?xml version="1.0" encoding="UTF-8"?>
<svg xmlns="http://www.w3.org/2000/svg" xmlns:xlink="http://www.w3.org/1999/xlink" width="20pt" height="20pt" viewBox="0 0 20 20" version="1.1">
<g id="surface1">
<path style=" stroke:none;fill-rule:nonzero;fill:rgb(80.392157%,72.54902%,52.941176%);fill-opacity:1;" d="M 12.679688 17.304688 C 14.1875 16.695312 16.304688 15.460938 16.652344 14.652344 L 16.652344 15.574219 C 17.308594 14.960938 18.078125 13.957031 18.195312 13.109375 L 18.8125 13.417969 C 19.222656 12.492188 19.429688 11 19.429688 9.871094 C 19.429688 5.527344 16.84375 0.773438 9.867188 2.316406 C 2.894531 0.773438 0.308594 5.527344 0.308594 9.871094 C 0.308594 11 0.515625 12.492188 0.925781 13.417969 L 1.542969 13.109375 C 1.65625 13.957031 2.429688 14.960938 3.082031 15.574219 L 3.082031 14.652344 C 3.429688 15.460938 5.550781 16.695312 7.058594 17.304688 C 9 17.785156 10.914062 18.0625 12.679688 17.304688 Z M 12.679688 17.304688 "/>
<path style=" stroke:none;fill-rule:nonzero;fill:rgb(76.470588%,60.784314%,43.137255%);fill-opacity:1;" d="M 9.867188 9.714844 C 12.066406 9.714844 13.96875 8.507812 15.089844 9.101562 C 15.539062 9.339844 15.726562 9.664062 15.726562 10.023438 L 16.652344 10.640625 C 16.652344 11.414062 16.050781 12.121094 15.703125 12.492188 C 15.050781 13.1875 15.394531 14.34375 15.394531 14.34375 L 14.472656 14.652344 C 14.472656 14.652344 14.914062 16.667969 12.324219 17.425781 C 11.140625 17.773438 8.789062 17.851562 7.402344 17.425781 C 4.8125 16.636719 5.242188 14.652344 5.242188 14.652344 L 4.316406 14.34375 C 4.316406 14.34375 4.683594 13.164062 4.007812 12.492188 C 3.726562 12.210938 3.441406 11.480469 3.378906 10.949219 C 3.238281 9.742188 3.804688 8.277344 5.550781 7.867188 L 4.933594 9.101562 C 6.058594 8.507812 7.660156 9.714844 9.867188 9.714844 "/>
<path style="fill:none;stroke-width:16;stroke-linecap:round;stroke-linejoin:round;stroke:rgb(0%,0%,0%);stroke-opacity:1;stroke-miterlimit:10;" d="M 239.957129 356.085029 L 239.957129 348.079703 " transform="matrix(0.0385486,0,0,0.0385486,0,0)"/>
<path style="fill:none;stroke-width:16;stroke-linecap:round;stroke-linejoin:round;stroke:rgb(0%,0%,0%);stroke-opacity:1;stroke-miterlimit:10;" d="M 271.978435 356.085029 L 271.978435 348.079703 " transform="matrix(0.0385486,0,0,0.0385486,0,0)"/>
<path style=" stroke:none;fill-rule:nonzero;fill:rgb(27.45098%,27.45098%,33.333333%);fill-opacity:1;" d="M 6.785156 14.035156 C 7.464844 15.394531 8.933594 16.191406 9.957031 16.191406 C 10.980469 16.191406 12.269531 15.394531 12.953125 14.035156 C 11.164062 14.828125 8.632812 14.886719 6.785156 14.035156 Z M 6.785156 14.035156 "/>
<path style=" stroke:none;fill-rule:nonzero;fill:rgb(45.490196%,38.431373%,34.117647%);fill-opacity:1;" d="M 12.027344 13.109375 C 12.027344 13.960938 10.796875 14.652344 9.867188 14.652344 C 8.941406 14.652344 7.710938 13.960938 7.710938 13.109375 C 7.710938 11.886719 8.675781 11.875 9.867188 11.875 C 11.0625 11.875 12.027344 11.875 12.027344 13.109375 Z M 12.027344 13.109375 "/>
<path style=" stroke:none;fill-rule:nonzero;fill:rgb(45.490196%,38.431373%,34.117647%);fill-opacity:1;" d="M 7.144531 12.335938 L 5.675781 13.304688 C 5.257812 13.578125 4.699219 13.460938 4.425781 13.046875 C 4.1875 12.683594 4.242188 12.210938 4.539062 11.917969 L 5.777344 10.664062 C 6.199219 10.238281 6.886719 10.234375 7.3125 10.65625 C 7.738281 11.078125 7.742188 11.765625 7.320312 12.191406 C 7.265625 12.246094 7.203125 12.292969 7.144531 12.335938 Z M 7.144531 12.335938 "/>
<path style=" stroke:none;fill-rule:nonzero;fill:rgb(0%,0%,0%);fill-opacity:1;" d="M 7.25 11.40625 C 7.25 11.785156 6.945312 12.089844 6.566406 12.089844 C 6.191406 12.089844 5.886719 11.785156 5.886719 11.40625 C 5.886719 11.03125 6.191406 10.726562 6.566406 10.726562 C 6.945312 10.726562 7.25 11.03125 7.25 11.40625 Z M 7.25 11.40625 "/>
<path style=" stroke:none;fill-rule:nonzero;fill:rgb(45.490196%,38.431373%,34.117647%);fill-opacity:1;" d="M 12.667969 12.296875 L 14.140625 13.265625 C 14.554688 13.539062 15.113281 13.421875 15.386719 13.007812 C 15.628906 12.644531 15.570312 12.171875 15.277344 11.878906 L 14.035156 10.625 C 13.617188 10.199219 12.929688 10.199219 12.503906 10.617188 C 12.074219 11.039062 12.074219 11.726562 12.496094 12.152344 C 12.550781 12.207031 12.609375 12.253906 12.667969 12.296875 Z M 12.667969 12.296875 "/>
<path style=" stroke:none;fill-rule:nonzero;fill:rgb(0%,0%,0%);fill-opacity:1;" d="M 13.929688 11.371094 C 13.929688 11.746094 13.621094 12.050781 13.246094 12.050781 C 12.871094 12.050781 12.5625 11.746094 12.5625 11.371094 C 12.5625 10.992188 12.871094 10.6875 13.246094 10.6875 C 13.621094 10.6875 13.929688 10.992188 13.929688 11.371094 Z M 13.929688 11.371094 "/>
<path style=" stroke:none;fill-rule:nonzero;fill:rgb(0%,0%,0%);fill-opacity:1;" d="M 16.9375 3.175781 C 16.097656 2.5 15.09375 2.054688 13.957031 1.84375 C 12.746094 1.625 11.371094 1.675781 9.867188 2 C 8.367188 1.675781 6.992188 1.625 5.78125 1.84375 C 4.640625 2.054688 3.640625 2.5 2.796875 3.175781 C 1.019531 4.605469 0 7.042969 0 9.871094 C 0 10.980469 0.199219 12.542969 0.640625 13.542969 C 0.675781 13.621094 0.738281 13.679688 0.820312 13.707031 C 0.898438 13.734375 0.988281 13.730469 1.0625 13.691406 L 1.332031 13.558594 C 1.589844 14.382812 2.265625 15.230469 2.875 15.800781 C 2.964844 15.882812 3.09375 15.90625 3.207031 15.859375 C 3.320312 15.808594 3.390625 15.699219 3.390625 15.574219 L 3.390625 15.511719 C 4.210938 16.253906 5.628906 17.03125 6.71875 17.5 C 6.898438 17.582031 7.09375 17.65625 7.3125 17.722656 C 8.007812 17.933594 8.914062 18.023438 9.800781 18.023438 C 10.792969 18.023438 11.761719 17.914062 12.414062 17.722656 C 12.664062 17.648438 12.890625 17.558594 13.09375 17.46875 C 14.175781 16.996094 15.546875 16.234375 16.34375 15.511719 L 16.34375 15.574219 C 16.34375 15.699219 16.417969 15.808594 16.53125 15.859375 C 16.644531 15.90625 16.773438 15.882812 16.863281 15.800781 C 17.46875 15.230469 18.144531 14.382812 18.40625 13.558594 L 18.675781 13.691406 C 18.75 13.730469 18.835938 13.734375 18.917969 13.707031 C 18.996094 13.679688 19.0625 13.621094 19.09375 13.542969 C 19.539062 12.542969 19.738281 10.980469 19.738281 9.871094 C 19.738281 7.042969 18.714844 4.605469 16.9375 3.175781 Z M 18.648438 12.992188 L 18.332031 12.835938 C 18.242188 12.789062 18.136719 12.789062 18.050781 12.835938 C 17.964844 12.882812 17.902344 12.96875 17.890625 13.066406 C 17.816406 13.601562 17.421875 14.25 16.960938 14.800781 L 16.960938 14.652344 C 16.960938 14.503906 16.859375 14.378906 16.714844 14.347656 C 16.570312 14.320312 16.425781 14.394531 16.371094 14.53125 C 16.207031 14.90625 15.488281 15.464844 14.605469 15.992188 C 14.628906 15.945312 14.644531 15.902344 14.660156 15.859375 C 14.800781 15.460938 14.816406 15.101562 14.808594 14.863281 L 15.492188 14.636719 C 15.652344 14.582031 15.738281 14.414062 15.691406 14.253906 C 15.6875 14.246094 15.410156 13.253906 15.929688 12.703125 C 16.621094 11.964844 16.960938 11.289062 16.960938 10.640625 C 16.960938 10.472656 16.824219 10.332031 16.652344 10.332031 C 16.484375 10.332031 16.34375 10.472656 16.34375 10.640625 C 16.34375 11.117188 16.054688 11.667969 15.480469 12.28125 C 14.925781 12.867188 14.964844 13.699219 15.035156 14.136719 L 14.375 14.359375 C 14.226562 14.40625 14.140625 14.5625 14.171875 14.714844 C 14.171875 14.71875 14.257812 15.148438 14.082031 15.652344 C 13.886719 16.183594 13.480469 16.601562 12.859375 16.898438 C 12.757812 16.941406 12.660156 16.980469 12.5625 17.019531 C 12.5625 17.019531 12.5625 17.023438 12.558594 17.023438 C 12.457031 17.0625 12.351562 17.097656 12.238281 17.132812 C 11.09375 17.464844 8.820312 17.535156 7.492188 17.132812 C 7.378906 17.097656 7.277344 17.0625 7.175781 17.023438 C 7.175781 17.023438 7.171875 17.019531 7.171875 17.019531 C 7.101562 16.992188 7.035156 16.964844 6.96875 16.9375 C 5.269531 16.167969 5.53125 14.78125 5.542969 14.714844 C 5.578125 14.5625 5.488281 14.40625 5.339844 14.359375 L 4.679688 14.136719 C 4.757812 13.695312 4.804688 12.847656 4.226562 12.273438 C 4.003906 12.050781 3.742188 11.390625 3.683594 10.914062 C 3.566406 9.882812 4 8.546875 5.621094 8.167969 C 5.789062 8.125 5.890625 7.960938 5.851562 7.792969 C 5.8125 7.628906 5.644531 7.527344 5.480469 7.566406 C 3.59375 8.011719 2.910156 9.605469 3.074219 10.988281 C 3.136719 11.535156 3.429688 12.347656 3.789062 12.710938 C 4.324219 13.242188 4.027344 14.242188 4.023438 14.25 C 3.972656 14.410156 4.058594 14.582031 4.21875 14.636719 L 4.910156 14.863281 C 4.902344 15.097656 4.917969 15.457031 5.0625 15.847656 C 5.078125 15.890625 5.097656 15.9375 5.117188 15.984375 C 4.242188 15.457031 3.527344 14.902344 3.367188 14.53125 C 3.308594 14.394531 3.167969 14.320312 3.023438 14.347656 C 2.878906 14.378906 2.777344 14.503906 2.777344 14.652344 L 2.777344 14.800781 C 2.316406 14.25 1.917969 13.601562 1.847656 13.066406 C 1.835938 12.96875 1.773438 12.882812 1.6875 12.835938 C 1.597656 12.789062 1.492188 12.789062 1.402344 12.832031 L 1.085938 12.992188 C 0.761719 12.074219 0.617188 10.804688 0.617188 9.871094 C 0.617188 7.230469 1.550781 4.96875 3.183594 3.65625 C 4.808594 2.355469 7.035156 2.003906 9.800781 2.617188 C 9.804688 2.617188 9.804688 2.617188 9.808594 2.617188 C 9.8125 2.617188 9.820312 2.617188 9.824219 2.621094 C 9.828125 2.621094 9.832031 2.621094 9.835938 2.621094 C 9.84375 2.621094 9.847656 2.625 9.851562 2.625 C 9.859375 2.625 9.863281 2.625 9.867188 2.625 C 9.875 2.625 9.878906 2.625 9.882812 2.625 C 9.890625 2.625 9.894531 2.621094 9.898438 2.621094 C 9.90625 2.621094 9.90625 2.621094 9.910156 2.621094 C 9.917969 2.617188 9.925781 2.617188 9.933594 2.617188 C 12.703125 2.003906 14.929688 2.355469 16.550781 3.65625 C 18.183594 4.96875 19.121094 7.230469 19.121094 9.871094 C 19.121094 10.804688 18.972656 12.074219 18.648438 12.992188 Z M 18.648438 12.992188 "/>
<path style=" stroke:none;fill-rule:nonzero;fill:rgb(0%,0%,0%);fill-opacity:1;" d="M 12.785156 13.773438 C 12.578125 13.910156 12.253906 14.011719 11.894531 14.097656 C 12.164062 13.8125 12.335938 13.472656 12.335938 13.109375 C 12.335938 12.417969 12.058594 11.960938 11.507812 11.742188 C 11.0625 11.566406 10.484375 11.566406 9.867188 11.566406 C 9.285156 11.566406 8.679688 11.566406 8.230469 11.746094 C 7.679688 11.964844 7.402344 12.425781 7.402344 13.109375 C 7.402344 13.472656 7.574219 13.8125 7.84375 14.097656 C 7.480469 14.015625 7.160156 13.910156 6.953125 13.773438 C 6.808594 13.683594 6.617188 13.722656 6.523438 13.867188 C 6.433594 14.011719 6.472656 14.203125 6.617188 14.292969 C 7.410156 14.800781 9.277344 14.960938 9.867188 14.960938 C 10.460938 14.960938 12.328125 14.800781 13.121094 14.292969 C 13.261719 14.203125 13.304688 14.011719 13.210938 13.867188 C 13.121094 13.722656 12.929688 13.683594 12.785156 13.773438 Z M 8.019531 13.109375 C 8.019531 12.261719 8.523438 12.183594 9.867188 12.183594 C 11.238281 12.183594 11.71875 12.257812 11.71875 13.109375 C 11.71875 13.742188 10.675781 14.34375 9.867188 14.34375 C 9.0625 14.34375 8.019531 13.742188 8.019531 13.109375 Z M 8.019531 13.109375 "/>
<path style=" stroke:none;fill-rule:nonzero;fill:rgb(0%,0%,0%);fill-opacity:1;" d="M 15.230469 8.828125 C 14.507812 8.441406 13.582031 8.683594 12.511719 8.964844 C 11.714844 9.171875 10.8125 9.410156 9.867188 9.410156 C 8.910156 9.410156 8.0625 9.167969 7.3125 8.953125 C 6.347656 8.679688 5.515625 8.445312 4.789062 8.828125 C 4.636719 8.90625 4.582031 9.09375 4.660156 9.242188 C 4.742188 9.394531 4.925781 9.453125 5.078125 9.371094 C 5.585938 9.105469 6.273438 9.300781 7.144531 9.546875 C 7.929688 9.769531 8.824219 10.023438 9.867188 10.023438 C 10.886719 10.023438 11.835938 9.777344 12.667969 9.558594 C 13.613281 9.3125 14.429688 9.101562 14.945312 9.371094 C 15.265625 9.542969 15.417969 9.753906 15.417969 10.023438 C 15.417969 10.195312 15.558594 10.332031 15.726562 10.332031 C 15.898438 10.332031 16.035156 10.195312 16.035156 10.023438 C 16.035156 9.671875 15.898438 9.179688 15.230469 8.828125 Z M 15.230469 8.828125 "/>
<path style=" stroke:none;fill-rule:nonzero;fill:rgb(0%,0%,0%);fill-opacity:1;" d="M 9.25 12.910156 C 9.082031 12.910156 8.941406 13.050781 8.941406 13.21875 L 8.941406 13.527344 C 8.941406 13.699219 9.082031 13.835938 9.25 13.835938 C 9.421875 13.835938 9.558594 13.699219 9.558594 13.527344 L 9.558594 13.21875 C 9.558594 13.050781 9.421875 12.910156 9.25 12.910156 Z M 9.25 12.910156 "/>
<path style=" stroke:none;fill-rule:nonzero;fill:rgb(0%,0%,0%);fill-opacity:1;" d="M 10.484375 12.910156 C 10.316406 12.910156 10.175781 13.050781 10.175781 13.21875 L 10.175781 13.527344 C 10.175781 13.699219 10.316406 13.835938 10.484375 13.835938 C 10.65625 13.835938 10.792969 13.699219 10.792969 13.527344 L 10.792969 13.21875 C 10.792969 13.050781 10.65625 12.910156 10.484375 12.910156 Z M 10.484375 12.910156 "/>
<path style=" stroke:none;fill-rule:nonzero;fill:rgb(0%,0%,0%);fill-opacity:1;" d="M 11.316406 15.339844 C 10.929688 15.667969 10.347656 15.882812 9.867188 15.882812 C 9.386719 15.882812 8.808594 15.667969 8.421875 15.339844 C 8.289062 15.230469 8.097656 15.246094 7.988281 15.378906 C 7.875 15.507812 7.894531 15.703125 8.023438 15.8125 C 8.523438 16.230469 9.242188 16.5 9.867188 16.5 C 10.492188 16.5 11.214844 16.230469 11.714844 15.8125 C 11.84375 15.703125 11.859375 15.507812 11.75 15.378906 C 11.640625 15.246094 11.445312 15.230469 11.316406 15.339844 Z M 11.316406 15.339844 "/>
</g>
</svg>
