<?xml version="1.0" encoding="UTF-8"?>
<svg xmlns="http://www.w3.org/2000/svg" xmlns:xlink="http://www.w3.org/1999/xlink" width="10pt" height="10pt" viewBox="0 0 10 10" version="1.1">
<g id="surface1">
<path style=" stroke:none;fill-rule:nonzero;fill:rgb(80.392157%,72.54902%,52.941176%);fill-opacity:1;" d="M 6.339844 8.652344 C 7.09375 8.347656 8.152344 7.730469 8.328125 7.328125 L 8.328125 7.789062 C 8.65625 7.480469 9.039062 6.976562 9.097656 6.554688 L 9.40625 6.710938 C 9.609375 6.246094 9.714844 5.5 9.714844 4.9375 C 9.714844 2.765625 8.421875 0.386719 4.933594 1.15625 C 1.445312 0.386719 0.15625 2.765625 0.15625 4.9375 C 0.15625 5.5 0.257812 6.246094 0.460938 6.710938 L 0.773438 6.554688 C 0.828125 6.976562 1.214844 7.480469 1.539062 7.789062 L 1.539062 7.328125 C 1.714844 7.730469 2.773438 8.347656 3.53125 8.652344 C 4.5 8.890625 5.457031 9.03125 6.339844 8.652344 Z M 6.339844 8.652344 "/>
<path style=" stroke:none;fill-rule:nonzero;fill:rgb(76.470588%,60.784314%,43.137255%);fill-opacity:1;" d="M 4.933594 4.859375 C 6.03125 4.859375 6.984375 4.253906 7.546875 4.550781 C 7.769531 4.671875 7.863281 4.832031 7.863281 5.011719 L 8.328125 5.320312 C 8.328125 5.707031 8.023438 6.0625 7.851562 6.246094 C 7.523438 6.59375 7.695312 7.171875 7.695312 7.171875 L 7.234375 7.328125 C 7.234375 7.328125 7.457031 8.335938 6.164062 8.710938 C 5.570312 8.886719 4.394531 8.925781 3.703125 8.710938 C 2.40625 8.320312 2.621094 7.328125 2.621094 7.328125 L 2.15625 7.171875 C 2.15625 7.171875 2.34375 6.582031 2.003906 6.246094 C 1.863281 6.105469 1.71875 5.742188 1.6875 5.476562 C 1.617188 4.871094 1.902344 4.140625 2.773438 3.933594 L 2.46875 4.550781 C 3.03125 4.253906 3.828125 4.859375 4.933594 4.859375 "/>
<path style="fill:none;stroke-width:16;stroke-linecap:round;stroke-linejoin:round;stroke:rgb(0%,0%,0%);stroke-opacity:1;stroke-miterlimit:10;" d="M 239.956834 356.084592 L 239.956834 348.180608 " transform="matrix(0.0192743,0,0,0.0192743,0,0)"/>
<path style="fill:none;stroke-width:16;stroke-linecap:round;stroke-linejoin:round;stroke:rgb(0%,0%,0%);stroke-opacity:1;stroke-miterlimit:10;" d="M 271.9781 356.084592 L 271.9781 348.180608 " transform="matrix(0.0192743,0,0,0.0192743,0,0)"/>
<path style=" stroke:none;fill-rule:nonzero;fill:rgb(27.45098%,27.45098%,33.333333%);fill-opacity:1;" d="M 3.390625 7.015625 C 3.734375 7.695312 4.46875 8.09375 4.976562 8.09375 C 5.492188 8.09375 6.132812 7.695312 6.476562 7.015625 C 5.582031 7.414062 4.316406 7.445312 3.390625 7.015625 Z M 3.390625 7.015625 "/>
<path style=" stroke:none;fill-rule:nonzero;fill:rgb(45.490196%,38.431373%,34.117647%);fill-opacity:1;" d="M 6.015625 6.554688 C 6.015625 6.980469 5.398438 7.328125 4.933594 7.328125 C 4.46875 7.328125 3.855469 6.980469 3.855469 6.554688 C 3.855469 5.945312 4.335938 5.9375 4.933594 5.9375 C 5.53125 5.9375 6.015625 5.9375 6.015625 6.554688 Z M 6.015625 6.554688 "/>
<path style=" stroke:none;fill-rule:nonzero;fill:rgb(45.490196%,38.431373%,34.117647%);fill-opacity:1;" d="M 3.570312 6.167969 L 2.835938 6.652344 C 2.628906 6.789062 2.351562 6.730469 2.210938 6.523438 C 2.09375 6.34375 2.121094 6.105469 2.269531 5.960938 L 2.890625 5.332031 C 3.101562 5.117188 3.445312 5.117188 3.65625 5.328125 C 3.867188 5.539062 3.871094 5.882812 3.660156 6.09375 C 3.632812 6.125 3.601562 6.148438 3.570312 6.167969 Z M 3.570312 6.167969 "/>
<path style=" stroke:none;fill-rule:nonzero;fill:rgb(0%,0%,0%);fill-opacity:1;" d="M 3.625 5.703125 C 3.625 5.890625 3.472656 6.046875 3.28125 6.046875 C 3.09375 6.046875 2.945312 5.890625 2.945312 5.703125 C 2.945312 5.515625 3.09375 5.363281 3.28125 5.363281 C 3.472656 5.363281 3.625 5.515625 3.625 5.703125 Z M 3.625 5.703125 "/>
<path style=" stroke:none;fill-rule:nonzero;fill:rgb(45.490196%,38.431373%,34.117647%);fill-opacity:1;" d="M 6.335938 6.148438 L 7.070312 6.632812 C 7.277344 6.769531 7.554688 6.710938 7.695312 6.503906 C 7.8125 6.320312 7.785156 6.085938 7.640625 5.9375 L 7.015625 5.3125 C 6.808594 5.101562 6.464844 5.101562 6.25 5.308594 C 6.039062 5.519531 6.039062 5.863281 6.25 6.078125 C 6.273438 6.101562 6.304688 6.125 6.335938 6.148438 Z M 6.335938 6.148438 "/>
<path style=" stroke:none;fill-rule:nonzero;fill:rgb(0%,0%,0%);fill-opacity:1;" d="M 6.964844 5.6875 C 6.964844 5.875 6.8125 6.023438 6.625 6.023438 C 6.4375 6.023438 6.28125 5.875 6.28125 5.6875 C 6.28125 5.496094 6.4375 5.34375 6.625 5.34375 C 6.8125 5.34375 6.964844 5.496094 6.964844 5.6875 Z M 6.964844 5.6875 "/>
<path style=" stroke:none;fill-rule:nonzero;fill:rgb(0%,0%,0%);fill-opacity:1;" d="M 8.46875 1.585938 C 8.046875 1.25 7.546875 1.027344 6.976562 0.921875 C 6.375 0.8125 5.6875 0.835938 4.933594 1 C 4.183594 0.835938 3.496094 0.8125 2.890625 0.921875 C 2.320312 1.027344 1.820312 1.25 1.398438 1.585938 C 0.507812 2.304688 0 3.523438 0 4.9375 C 0 5.492188 0.101562 6.273438 0.320312 6.773438 C 0.335938 6.8125 0.367188 6.839844 0.410156 6.851562 C 0.449219 6.867188 0.492188 6.867188 0.53125 6.84375 L 0.664062 6.78125 C 0.796875 7.191406 1.132812 7.617188 1.4375 7.898438 C 1.484375 7.941406 1.546875 7.953125 1.601562 7.929688 C 1.660156 7.90625 1.695312 7.851562 1.695312 7.789062 L 1.695312 7.757812 C 2.105469 8.125 2.8125 8.515625 3.359375 8.75 C 3.449219 8.789062 3.546875 8.828125 3.65625 8.859375 C 4.003906 8.96875 4.457031 9.011719 4.898438 9.011719 C 5.398438 9.011719 5.882812 8.957031 6.207031 8.859375 C 6.332031 8.824219 6.445312 8.78125 6.546875 8.734375 C 7.085938 8.5 7.773438 8.117188 8.171875 7.757812 L 8.171875 7.789062 C 8.171875 7.851562 8.210938 7.90625 8.265625 7.929688 C 8.320312 7.953125 8.386719 7.941406 8.429688 7.898438 C 8.734375 7.617188 9.070312 7.191406 9.203125 6.78125 L 9.335938 6.84375 C 9.375 6.867188 9.417969 6.867188 9.460938 6.851562 C 9.5 6.839844 9.53125 6.8125 9.546875 6.773438 C 9.769531 6.273438 9.867188 5.492188 9.867188 4.9375 C 9.867188 3.523438 9.359375 2.304688 8.46875 1.585938 Z M 9.324219 6.496094 L 9.164062 6.417969 C 9.121094 6.394531 9.070312 6.394531 9.023438 6.417969 C 8.984375 6.441406 8.953125 6.484375 8.945312 6.53125 C 8.90625 6.800781 8.710938 7.125 8.480469 7.398438 L 8.480469 7.328125 C 8.480469 7.25 8.429688 7.1875 8.359375 7.171875 C 8.285156 7.160156 8.210938 7.195312 8.1875 7.265625 C 8.101562 7.453125 7.742188 7.734375 7.304688 7.996094 C 7.3125 7.972656 7.320312 7.953125 7.328125 7.929688 C 7.398438 7.730469 7.40625 7.550781 7.40625 7.429688 L 7.746094 7.320312 C 7.828125 7.289062 7.867188 7.207031 7.84375 7.125 C 7.84375 7.125 7.703125 6.625 7.964844 6.351562 C 8.3125 5.984375 8.480469 5.644531 8.480469 5.320312 C 8.480469 5.234375 8.414062 5.164062 8.328125 5.164062 C 8.242188 5.164062 8.171875 5.234375 8.171875 5.320312 C 8.171875 5.558594 8.027344 5.835938 7.742188 6.140625 C 7.460938 6.433594 7.484375 6.851562 7.515625 7.070312 L 7.1875 7.179688 C 7.113281 7.203125 7.070312 7.28125 7.085938 7.359375 C 7.085938 7.359375 7.128906 7.574219 7.039062 7.828125 C 6.945312 8.09375 6.742188 8.300781 6.429688 8.449219 C 6.378906 8.46875 6.328125 8.492188 6.28125 8.507812 C 6.28125 8.507812 6.28125 8.511719 6.28125 8.511719 C 6.226562 8.53125 6.175781 8.546875 6.117188 8.566406 C 5.546875 8.734375 4.410156 8.765625 3.746094 8.566406 C 3.6875 8.546875 3.640625 8.53125 3.585938 8.511719 C 3.585938 8.511719 3.585938 8.507812 3.585938 8.507812 C 3.550781 8.496094 3.515625 8.484375 3.484375 8.46875 C 2.632812 8.085938 2.765625 7.390625 2.773438 7.359375 C 2.789062 7.28125 2.742188 7.203125 2.671875 7.179688 L 2.339844 7.070312 C 2.378906 6.847656 2.402344 6.421875 2.113281 6.136719 C 2 6.023438 1.871094 5.695312 1.84375 5.457031 C 1.78125 4.941406 2 4.273438 2.8125 4.085938 C 2.894531 4.0625 2.945312 3.980469 2.925781 3.898438 C 2.90625 3.8125 2.820312 3.765625 2.742188 3.78125 C 1.796875 4.007812 1.453125 4.804688 1.539062 5.492188 C 1.570312 5.765625 1.714844 6.171875 1.894531 6.355469 C 2.164062 6.621094 2.015625 7.121094 2.011719 7.125 C 1.984375 7.203125 2.03125 7.289062 2.109375 7.320312 L 2.453125 7.429688 C 2.453125 7.546875 2.460938 7.726562 2.53125 7.921875 C 2.539062 7.945312 2.546875 7.96875 2.558594 7.992188 C 2.121094 7.726562 1.765625 7.453125 1.683594 7.265625 C 1.65625 7.195312 1.585938 7.160156 1.511719 7.171875 C 1.4375 7.1875 1.390625 7.25 1.390625 7.328125 L 1.390625 7.398438 C 1.15625 7.125 0.960938 6.800781 0.921875 6.53125 C 0.917969 6.484375 0.886719 6.441406 0.84375 6.417969 C 0.796875 6.394531 0.746094 6.394531 0.703125 6.414062 L 0.542969 6.496094 C 0.382812 6.039062 0.308594 5.402344 0.308594 4.9375 C 0.308594 3.617188 0.773438 2.484375 1.59375 1.828125 C 2.40625 1.179688 3.515625 1 4.898438 1.308594 C 4.902344 1.308594 4.902344 1.308594 4.90625 1.308594 C 4.90625 1.308594 4.910156 1.308594 4.914062 1.3125 C 4.914062 1.3125 4.914062 1.3125 4.917969 1.3125 C 4.921875 1.3125 4.921875 1.3125 4.925781 1.3125 C 4.929688 1.3125 4.929688 1.3125 4.933594 1.3125 C 4.9375 1.3125 4.9375 1.3125 4.941406 1.3125 C 4.945312 1.3125 4.945312 1.3125 4.949219 1.3125 C 4.953125 1.3125 4.953125 1.3125 4.953125 1.3125 C 4.960938 1.308594 4.960938 1.308594 4.96875 1.308594 C 6.351562 1 7.464844 1.179688 8.273438 1.828125 C 9.09375 2.484375 9.5625 3.617188 9.5625 4.9375 C 9.5625 5.402344 9.484375 6.039062 9.324219 6.496094 Z M 9.324219 6.496094 "/>
<path style=" stroke:none;fill-rule:nonzero;fill:rgb(0%,0%,0%);fill-opacity:1;" d="M 6.390625 6.886719 C 6.289062 6.953125 6.125 7.007812 5.945312 7.046875 C 6.082031 6.90625 6.167969 6.734375 6.167969 6.554688 C 6.167969 6.210938 6.03125 5.980469 5.753906 5.871094 C 5.53125 5.78125 5.242188 5.78125 4.933594 5.78125 C 4.640625 5.78125 4.339844 5.78125 4.117188 5.875 C 3.839844 5.984375 3.703125 6.210938 3.703125 6.554688 C 3.703125 6.734375 3.789062 6.90625 3.921875 7.046875 C 3.742188 7.007812 3.578125 6.953125 3.476562 6.886719 C 3.40625 6.84375 3.308594 6.859375 3.261719 6.933594 C 3.21875 7.007812 3.234375 7.101562 3.308594 7.148438 C 3.703125 7.398438 4.640625 7.480469 4.933594 7.480469 C 5.230469 7.480469 6.164062 7.398438 6.5625 7.148438 C 6.632812 7.101562 6.652344 7.007812 6.605469 6.933594 C 6.5625 6.859375 6.464844 6.84375 6.390625 6.886719 Z M 4.007812 6.554688 C 4.007812 6.132812 4.261719 6.09375 4.933594 6.09375 C 5.617188 6.09375 5.859375 6.128906 5.859375 6.554688 C 5.859375 6.871094 5.335938 7.171875 4.933594 7.171875 C 4.53125 7.171875 4.007812 6.871094 4.007812 6.554688 Z M 4.007812 6.554688 "/>
<path style=" stroke:none;fill-rule:nonzero;fill:rgb(0%,0%,0%);fill-opacity:1;" d="M 7.617188 4.414062 C 7.253906 4.21875 6.789062 4.34375 6.257812 4.484375 C 5.859375 4.585938 5.40625 4.703125 4.933594 4.703125 C 4.453125 4.703125 4.03125 4.585938 3.65625 4.476562 C 3.171875 4.339844 2.757812 4.222656 2.394531 4.414062 C 2.320312 4.453125 2.289062 4.546875 2.328125 4.621094 C 2.371094 4.695312 2.460938 4.726562 2.539062 4.6875 C 2.792969 4.554688 3.136719 4.648438 3.570312 4.773438 C 3.964844 4.882812 4.414062 5.011719 4.933594 5.011719 C 5.445312 5.011719 5.917969 4.890625 6.335938 4.78125 C 6.804688 4.65625 7.214844 4.550781 7.472656 4.6875 C 7.632812 4.773438 7.710938 4.875 7.710938 5.011719 C 7.710938 5.097656 7.78125 5.164062 7.863281 5.164062 C 7.949219 5.164062 8.015625 5.097656 8.015625 5.011719 C 8.015625 4.835938 7.949219 4.589844 7.617188 4.414062 Z M 7.617188 4.414062 "/>
<path style=" stroke:none;fill-rule:nonzero;fill:rgb(0%,0%,0%);fill-opacity:1;" d="M 4.625 6.453125 C 4.539062 6.453125 4.46875 6.523438 4.46875 6.609375 L 4.46875 6.765625 C 4.46875 6.851562 4.539062 6.917969 4.625 6.917969 C 4.710938 6.917969 4.78125 6.851562 4.78125 6.765625 L 4.78125 6.609375 C 4.78125 6.523438 4.710938 6.453125 4.625 6.453125 Z M 4.625 6.453125 "/>
<path style=" stroke:none;fill-rule:nonzero;fill:rgb(0%,0%,0%);fill-opacity:1;" d="M 5.242188 6.453125 C 5.15625 6.453125 5.085938 6.523438 5.085938 6.609375 L 5.085938 6.765625 C 5.085938 6.851562 5.15625 6.917969 5.242188 6.917969 C 5.328125 6.917969 5.398438 6.851562 5.398438 6.765625 L 5.398438 6.609375 C 5.398438 6.523438 5.328125 6.453125 5.242188 6.453125 Z M 5.242188 6.453125 "/>
<path style=" stroke:none;fill-rule:nonzero;fill:rgb(0%,0%,0%);fill-opacity:1;" d="M 5.65625 7.671875 C 5.464844 7.835938 5.171875 7.941406 4.933594 7.941406 C 4.695312 7.941406 4.40625 7.835938 4.210938 7.671875 C 4.144531 7.617188 4.046875 7.625 3.992188 7.6875 C 3.9375 7.753906 3.945312 7.851562 4.011719 7.90625 C 4.261719 8.117188 4.621094 8.25 4.933594 8.25 C 5.246094 8.25 5.609375 8.117188 5.859375 7.90625 C 5.921875 7.851562 5.929688 7.753906 5.875 7.6875 C 5.820312 7.625 5.722656 7.617188 5.65625 7.671875 Z M 5.65625 7.671875 "/>
</g>
</svg>
