<?xml version="1.0" encoding="UTF-8"?>
<svg xmlns="http://www.w3.org/2000/svg" xmlns:xlink="http://www.w3.org/1999/xlink" width="30pt" height="30pt" viewBox="0 0 30 30" version="1.1">
<g id="surface1">
<path style=" stroke:none;fill-rule:nonzero;fill:rgb(80.392157%,72.54902%,52.941176%);fill-opacity:1;" d="M 19.273438 26.304688 C 21.5625 25.375 24.785156 23.5 25.3125 22.269531 L 25.3125 23.675781 C 26.308594 22.738281 27.480469 21.214844 27.65625 19.925781 L 28.59375 20.394531 C 29.21875 18.988281 29.53125 16.722656 29.53125 15.003906 C 29.53125 8.402344 25.601562 1.175781 15 3.519531 C 4.398438 1.175781 0.46875 8.402344 0.46875 15.003906 C 0.46875 16.722656 0.78125 18.988281 1.40625 20.394531 L 2.34375 19.925781 C 2.519531 21.214844 3.691406 22.738281 4.6875 23.675781 L 4.6875 22.269531 C 5.214844 23.5 8.4375 25.375 10.726562 26.304688 C 13.679688 27.035156 16.589844 27.457031 19.273438 26.304688 Z M 19.273438 26.304688 "/>
<path style=" stroke:none;fill-rule:nonzero;fill:rgb(76.470588%,60.784314%,43.137255%);fill-opacity:1;" d="M 15 14.769531 C 18.34375 14.769531 21.230469 12.929688 22.933594 13.832031 C 23.621094 14.195312 23.90625 14.691406 23.90625 15.238281 L 25.3125 16.175781 C 25.3125 17.347656 24.394531 18.425781 23.867188 18.988281 C 22.875 20.042969 23.402344 21.800781 23.402344 21.800781 L 22 22.269531 C 22 22.269531 22.667969 25.335938 18.734375 26.488281 C 16.933594 27.015625 13.359375 27.132812 11.25 26.488281 C 7.316406 25.285156 7.96875 22.269531 7.96875 22.269531 L 6.5625 21.800781 C 6.5625 21.800781 7.121094 20.011719 6.09375 18.988281 C 5.664062 18.558594 5.230469 17.453125 5.136719 16.644531 C 4.921875 14.808594 5.78125 12.582031 8.4375 11.957031 L 7.5 13.832031 C 9.210938 12.929688 11.640625 14.769531 15 14.769531 "/>
<path style="fill:none;stroke-width:16;stroke-linecap:round;stroke-linejoin:round;stroke:rgb(0%,0%,0%);stroke-opacity:1;stroke-miterlimit:10;" d="M 240 356.066667 L 240 348.066667 " transform="matrix(0.0585938,0,0,0.0585938,0,0)"/>
<path style="fill:none;stroke-width:16;stroke-linecap:round;stroke-linejoin:round;stroke:rgb(0%,0%,0%);stroke-opacity:1;stroke-miterlimit:10;" d="M 272 356.066667 L 272 348.066667 " transform="matrix(0.0585938,0,0,0.0585938,0,0)"/>
<path style=" stroke:none;fill-rule:nonzero;fill:rgb(27.45098%,27.45098%,33.333333%);fill-opacity:1;" d="M 10.3125 21.332031 C 11.347656 23.402344 13.578125 24.609375 15.132812 24.609375 C 16.6875 24.609375 18.652344 23.402344 19.6875 21.332031 C 16.96875 22.539062 13.121094 22.625 10.3125 21.332031 Z M 10.3125 21.332031 "/>
<path style=" stroke:none;fill-rule:nonzero;fill:rgb(45.490196%,38.431373%,34.117647%);fill-opacity:1;" d="M 18.28125 19.925781 C 18.28125 21.21875 16.410156 22.269531 15 22.269531 C 13.589844 22.269531 11.71875 21.21875 11.71875 19.925781 C 11.71875 18.070312 13.1875 18.050781 15 18.050781 C 16.8125 18.050781 18.28125 18.050781 18.28125 19.925781 Z M 18.28125 19.925781 "/>
<path style=" stroke:none;fill-rule:nonzero;fill:rgb(45.490196%,38.431373%,34.117647%);fill-opacity:1;" d="M 10.859375 18.75 L 8.625 20.222656 C 7.992188 20.636719 7.144531 20.460938 6.726562 19.832031 C 6.363281 19.28125 6.449219 18.5625 6.898438 18.113281 L 8.78125 16.210938 C 9.421875 15.5625 10.464844 15.558594 11.113281 16.199219 C 11.761719 16.839844 11.765625 17.882812 11.125 18.53125 C 11.042969 18.613281 10.949219 18.6875 10.859375 18.75 Z M 10.859375 18.75 "/>
<path style=" stroke:none;fill-rule:nonzero;fill:rgb(0%,0%,0%);fill-opacity:1;" d="M 11.019531 17.339844 C 11.019531 17.914062 10.554688 18.375 9.980469 18.375 C 9.410156 18.375 8.945312 17.914062 8.945312 17.339844 C 8.945312 16.769531 9.410156 16.304688 9.980469 16.304688 C 10.554688 16.304688 11.019531 16.769531 11.019531 17.339844 Z M 11.019531 17.339844 "/>
<path style=" stroke:none;fill-rule:nonzero;fill:rgb(45.490196%,38.431373%,34.117647%);fill-opacity:1;" d="M 19.257812 18.691406 L 21.492188 20.164062 C 22.125 20.578125 22.972656 20.402344 23.390625 19.773438 C 23.753906 19.222656 23.667969 18.503906 23.21875 18.054688 L 21.335938 16.152344 C 20.695312 15.503906 19.652344 15.5 19.003906 16.140625 C 18.355469 16.78125 18.351562 17.824219 18.992188 18.472656 C 19.074219 18.554688 19.167969 18.628906 19.257812 18.691406 Z M 19.257812 18.691406 "/>
<path style=" stroke:none;fill-rule:nonzero;fill:rgb(0%,0%,0%);fill-opacity:1;" d="M 21.171875 17.28125 C 21.171875 17.855469 20.707031 18.316406 20.136719 18.316406 C 19.5625 18.316406 19.097656 17.855469 19.097656 17.28125 C 19.097656 16.710938 19.5625 16.246094 20.136719 16.246094 C 20.707031 16.246094 21.171875 16.710938 21.171875 17.28125 Z M 21.171875 17.28125 "/>
<path style=" stroke:none;fill-rule:nonzero;fill:rgb(0%,0%,0%);fill-opacity:1;" d="M 25.746094 4.828125 C 24.46875 3.800781 22.945312 3.121094 21.214844 2.804688 C 19.371094 2.46875 17.28125 2.546875 15 3.039062 C 12.71875 2.546875 10.628906 2.46875 8.785156 2.804688 C 7.054688 3.121094 5.53125 3.800781 4.253906 4.828125 C 1.550781 7 0 10.707031 0 15.003906 C 0 16.6875 0.300781 19.0625 0.976562 20.585938 C 1.027344 20.703125 1.125 20.792969 1.246094 20.835938 C 1.367188 20.878906 1.5 20.871094 1.613281 20.8125 L 2.023438 20.609375 C 2.417969 21.859375 3.445312 23.148438 4.367188 24.015625 C 4.503906 24.144531 4.703125 24.179688 4.875 24.105469 C 5.046875 24.03125 5.15625 23.863281 5.15625 23.675781 L 5.15625 23.578125 C 6.398438 24.703125 8.558594 25.886719 10.214844 26.601562 C 10.488281 26.722656 10.785156 26.835938 11.113281 26.9375 C 12.171875 27.257812 13.546875 27.398438 14.898438 27.398438 C 16.402344 27.398438 17.878906 27.226562 18.867188 26.9375 C 19.25 26.824219 19.59375 26.691406 19.902344 26.550781 C 21.546875 25.832031 23.632812 24.675781 24.84375 23.578125 L 24.84375 23.675781 C 24.84375 23.863281 24.953125 24.03125 25.125 24.105469 C 25.296875 24.179688 25.496094 24.144531 25.632812 24.015625 C 26.554688 23.148438 27.582031 21.859375 27.976562 20.609375 L 28.386719 20.8125 C 28.5 20.871094 28.632812 20.878906 28.753906 20.835938 C 28.875 20.792969 28.972656 20.703125 29.023438 20.585938 C 29.699219 19.0625 30 16.6875 30 15.003906 C 30 10.707031 28.449219 7 25.746094 4.828125 Z M 28.347656 19.746094 L 27.867188 19.507812 C 27.730469 19.4375 27.570312 19.441406 27.4375 19.511719 C 27.304688 19.582031 27.210938 19.710938 27.191406 19.863281 C 27.082031 20.675781 26.480469 21.660156 25.78125 22.496094 L 25.78125 22.269531 C 25.78125 22.046875 25.625 21.855469 25.40625 21.808594 C 25.1875 21.765625 24.96875 21.878906 24.882812 22.085938 C 24.636719 22.65625 23.542969 23.507812 22.203125 24.308594 C 22.234375 24.238281 22.261719 24.171875 22.285156 24.105469 C 22.5 23.5 22.523438 22.953125 22.507812 22.59375 L 23.550781 22.246094 C 23.789062 22.164062 23.921875 21.910156 23.851562 21.667969 C 23.847656 21.652344 23.425781 20.144531 24.210938 19.308594 C 25.265625 18.183594 25.78125 17.160156 25.78125 16.175781 C 25.78125 15.917969 25.570312 15.707031 25.3125 15.707031 C 25.054688 15.707031 24.84375 15.917969 24.84375 16.175781 C 24.84375 16.898438 24.402344 17.738281 23.527344 18.667969 C 22.6875 19.558594 22.746094 20.824219 22.855469 21.488281 L 21.851562 21.824219 C 21.625 21.898438 21.492188 22.132812 21.542969 22.367188 C 21.542969 22.375 21.671875 23.027344 21.402344 23.789062 C 21.109375 24.601562 20.488281 25.234375 19.546875 25.683594 C 19.394531 25.75 19.246094 25.8125 19.097656 25.871094 C 19.097656 25.871094 19.09375 25.875 19.089844 25.875 C 18.933594 25.933594 18.773438 25.988281 18.601562 26.039062 C 16.863281 26.546875 13.40625 26.65625 11.386719 26.039062 C 11.21875 25.988281 11.058594 25.933594 10.90625 25.875 C 10.90625 25.875 10.902344 25.871094 10.902344 25.871094 C 10.796875 25.828125 10.695312 25.785156 10.589844 25.742188 C 8.011719 24.574219 8.40625 22.464844 8.425781 22.367188 C 8.476562 22.132812 8.34375 21.898438 8.117188 21.824219 L 7.113281 21.488281 C 7.230469 20.816406 7.300781 19.53125 6.425781 18.65625 C 6.085938 18.316406 5.6875 17.3125 5.601562 16.589844 C 5.417969 15.023438 6.082031 12.992188 8.542969 12.414062 C 8.796875 12.351562 8.953125 12.101562 8.894531 11.847656 C 8.835938 11.597656 8.582031 11.441406 8.332031 11.5 C 5.460938 12.175781 4.425781 14.597656 4.671875 16.699219 C 4.765625 17.53125 5.210938 18.769531 5.761719 19.320312 C 6.570312 20.128906 6.121094 21.648438 6.113281 21.660156 C 6.039062 21.90625 6.171875 22.164062 6.414062 22.246094 L 7.464844 22.59375 C 7.449219 22.949219 7.476562 23.492188 7.695312 24.085938 C 7.71875 24.15625 7.746094 24.226562 7.777344 24.296875 C 6.445312 23.496094 5.363281 22.652344 5.117188 22.085938 C 5.03125 21.878906 4.8125 21.765625 4.59375 21.808594 C 4.375 21.855469 4.21875 22.046875 4.21875 22.269531 L 4.21875 22.496094 C 3.519531 21.660156 2.917969 20.675781 2.808594 19.863281 C 2.789062 19.710938 2.695312 19.582031 2.5625 19.511719 C 2.429688 19.441406 2.269531 19.4375 2.132812 19.503906 L 1.652344 19.746094 C 1.160156 18.355469 0.9375 16.421875 0.9375 15.003906 C 0.9375 10.992188 2.359375 7.550781 4.839844 5.558594 C 7.308594 3.578125 10.691406 3.046875 14.898438 3.976562 C 14.902344 3.976562 14.902344 3.976562 14.90625 3.976562 C 14.914062 3.980469 14.925781 3.980469 14.933594 3.984375 C 14.941406 3.984375 14.945312 3.984375 14.953125 3.984375 C 14.960938 3.984375 14.96875 3.988281 14.976562 3.988281 C 14.984375 3.988281 14.992188 3.988281 15 3.988281 C 15.007812 3.988281 15.015625 3.988281 15.019531 3.988281 C 15.03125 3.988281 15.039062 3.984375 15.046875 3.984375 C 15.054688 3.984375 15.058594 3.984375 15.0625 3.984375 C 15.074219 3.980469 15.085938 3.980469 15.097656 3.976562 C 15.097656 3.976562 15.097656 3.976562 15.101562 3.976562 C 19.308594 3.046875 22.691406 3.578125 25.160156 5.558594 C 27.640625 7.550781 29.0625 10.992188 29.0625 15.003906 C 29.0625 16.421875 28.839844 18.355469 28.347656 19.746094 Z M 28.347656 19.746094 "/>
<path style=" stroke:none;fill-rule:nonzero;fill:rgb(0%,0%,0%);fill-opacity:1;" d="M 19.433594 20.9375 C 19.117188 21.140625 18.628906 21.300781 18.078125 21.429688 C 18.488281 20.996094 18.75 20.480469 18.75 19.925781 C 18.75 18.875 18.328125 18.179688 17.492188 17.847656 C 16.816406 17.582031 15.933594 17.582031 15 17.582031 C 14.113281 17.582031 13.195312 17.582031 12.507812 17.855469 C 11.671875 18.1875 11.25 18.886719 11.25 19.925781 C 11.25 20.480469 11.511719 20.996094 11.921875 21.429688 C 11.371094 21.304688 10.882812 21.140625 10.566406 20.9375 C 10.347656 20.796875 10.058594 20.859375 9.917969 21.078125 C 9.777344 21.296875 9.839844 21.585938 10.058594 21.726562 C 11.261719 22.496094 14.101562 22.738281 15 22.738281 C 15.898438 22.738281 18.738281 22.496094 19.941406 21.726562 C 20.160156 21.585938 20.222656 21.296875 20.082031 21.078125 C 19.941406 20.859375 19.652344 20.796875 19.433594 20.9375 Z M 12.1875 19.925781 C 12.1875 18.640625 12.957031 18.519531 15 18.519531 C 17.082031 18.519531 17.8125 18.632812 17.8125 19.925781 C 17.8125 20.890625 16.226562 21.800781 15 21.800781 C 13.773438 21.800781 12.1875 20.890625 12.1875 19.925781 Z M 12.1875 19.925781 "/>
<path style=" stroke:none;fill-rule:nonzero;fill:rgb(0%,0%,0%);fill-opacity:1;" d="M 23.152344 13.417969 C 22.050781 12.832031 20.644531 13.199219 19.019531 13.625 C 17.808594 13.941406 16.433594 14.300781 15 14.300781 C 13.542969 14.300781 12.253906 13.933594 11.113281 13.609375 C 9.648438 13.195312 8.382812 12.835938 7.28125 13.417969 C 7.050781 13.539062 6.964844 13.820312 7.085938 14.050781 C 7.207031 14.277344 7.488281 14.367188 7.71875 14.246094 C 8.488281 13.839844 9.535156 14.136719 10.859375 14.511719 C 12.054688 14.851562 13.414062 15.238281 15 15.238281 C 16.550781 15.238281 17.988281 14.863281 19.257812 14.53125 C 20.691406 14.15625 21.933594 13.832031 22.714844 14.246094 C 23.203125 14.503906 23.4375 14.828125 23.4375 15.238281 C 23.4375 15.496094 23.648438 15.707031 23.90625 15.707031 C 24.164062 15.707031 24.375 15.496094 24.375 15.238281 C 24.375 14.703125 24.164062 13.953125 23.152344 13.417969 Z M 23.152344 13.417969 "/>
<path style=" stroke:none;fill-rule:nonzero;fill:rgb(0%,0%,0%);fill-opacity:1;" d="M 14.0625 19.625 C 13.804688 19.625 13.59375 19.835938 13.59375 20.09375 L 13.59375 20.5625 C 13.59375 20.824219 13.804688 21.03125 14.0625 21.03125 C 14.320312 21.03125 14.53125 20.824219 14.53125 20.5625 L 14.53125 20.09375 C 14.53125 19.835938 14.320312 19.625 14.0625 19.625 Z M 14.0625 19.625 "/>
<path style=" stroke:none;fill-rule:nonzero;fill:rgb(0%,0%,0%);fill-opacity:1;" d="M 15.9375 19.625 C 15.679688 19.625 15.46875 19.835938 15.46875 20.09375 L 15.46875 20.5625 C 15.46875 20.824219 15.679688 21.03125 15.9375 21.03125 C 16.195312 21.03125 16.40625 20.824219 16.40625 20.5625 L 16.40625 20.09375 C 16.40625 19.835938 16.195312 19.625 15.9375 19.625 Z M 15.9375 19.625 "/>
<path style=" stroke:none;fill-rule:nonzero;fill:rgb(0%,0%,0%);fill-opacity:1;" d="M 17.199219 23.316406 C 16.613281 23.8125 15.730469 24.144531 15 24.144531 C 14.269531 24.144531 13.386719 23.8125 12.800781 23.316406 C 12.601562 23.148438 12.308594 23.175781 12.140625 23.375 C 11.972656 23.570312 12 23.867188 12.195312 24.035156 C 12.953125 24.671875 14.050781 25.082031 15 25.082031 C 15.949219 25.082031 17.046875 24.671875 17.804688 24.035156 C 18 23.867188 18.027344 23.570312 17.859375 23.375 C 17.691406 23.175781 17.398438 23.148438 17.199219 23.316406 Z M 17.199219 23.316406 "/>
</g>
</svg>
